<svg width="419" height="100" viewBox="0 0 419 100" fill="none" xmlns="http://www.w3.org/2000/svg">
<g clip-path="url(#clip0)">
<path d="M22.0238 22.873C24.2138 22.873 25.9892 21.0047 25.9892 18.7C25.9892 16.3953 24.2138 14.527 22.0238 14.527C19.8338 14.527 18.0584 16.3953 18.0584 18.7C18.0584 21.0047 19.8338 22.873 22.0238 22.873Z" fill="#488EFF"/>
<path d="M34.616 71.4286L39.9063 81.0714H29.3257L34.616 71.4286Z" fill="#488EFF"/>
<path d="M46.9762 22.873C49.1662 22.873 50.9416 21.0047 50.9416 18.7C50.9416 16.3953 49.1662 14.527 46.9762 14.527C44.7862 14.527 43.0108 16.3953 43.0108 18.7C43.0108 21.0047 44.7862 22.873 46.9762 22.873Z" fill="#488EFF"/>
<path d="M0 0V39.225H30.309V42.565L0 42.567V100H17.6213L31.033 85.886L23.3256 77.776L31.033 69.665L28.78 67.295L18.8215 77.776L23.1907 82.375L14.3734 91.655H7.93073V50.912H61.0693V91.654H54.6285L45.8103 82.374L50.1804 77.775L40.219 67.294L37.966 69.664L45.6744 77.775L37.966 85.885L51.3787 100H69V42.567L38.691 42.566V39.226H69V0H0ZM61.0693 30.879H7.93073V7.75H61.0693V30.879Z" fill="#488EFF"/>
</g>
<path d="M117.192 54.856C117.192 59.016 116.088 62.168 113.88 64.312C111.672 66.424 108.456 67.48 104.232 67.48C100.008 67.48 96.792 66.424 94.584 64.312C92.376 62.168 91.272 59.016 91.272 54.856V35.32H96.456V54.232C96.456 57.24 97.08 59.464 98.328 60.904C99.608 62.312 101.576 63.016 104.232 63.016C106.888 63.016 108.84 62.312 110.088 60.904C111.368 59.464 112.008 57.24 112.008 54.232V35.32H117.192V54.856ZM138.162 42.52C141.458 42.52 144.05 43.624 145.938 45.832C147.826 48.008 148.77 51.048 148.77 54.952C148.77 58.856 147.826 61.928 145.938 64.168C144.05 66.376 141.458 67.48 138.162 67.48C136.434 67.48 134.882 67.096 133.506 66.328C132.162 65.56 131.122 64.504 130.386 63.16V77.08H125.25V43H129.762L130.002 47.464C130.706 45.96 131.762 44.76 133.17 43.864C134.61 42.968 136.274 42.52 138.162 42.52ZM137.01 63.304C139.09 63.304 140.706 62.584 141.858 61.144C143.042 59.672 143.634 57.624 143.634 55C143.634 52.376 143.042 50.328 141.858 48.856C140.706 47.384 139.09 46.648 137.01 46.648C135.058 46.648 133.49 47.304 132.306 48.616C131.154 49.928 130.514 51.752 130.386 54.088V55.912C130.514 58.216 131.154 60.024 132.306 61.336C133.49 62.648 135.058 63.304 137.01 63.304ZM170.661 65.416C169.893 66.056 168.949 66.568 167.829 66.952C166.741 67.304 165.557 67.48 164.277 67.48C162.069 67.48 160.293 66.936 158.949 65.848C157.637 64.728 156.965 63 156.933 60.664V47.032H152.373V43H156.933V37.384L162.069 35.944V43H170.469V47.032H162.069V59.8C162.069 60.952 162.373 61.816 162.981 62.392C163.621 62.936 164.485 63.208 165.573 63.208C167.045 63.208 168.341 62.696 169.461 61.672L170.661 65.416ZM178.045 38.968C176.957 38.968 176.109 38.696 175.501 38.152C174.893 37.576 174.589 36.776 174.589 35.752C174.589 34.728 174.893 33.944 175.501 33.4C176.109 32.856 176.957 32.584 178.045 32.584C179.133 32.584 179.965 32.856 180.541 33.4C181.149 33.944 181.453 34.728 181.453 35.752C181.453 36.776 181.149 37.576 180.541 38.152C179.965 38.696 179.133 38.968 178.045 38.968ZM180.589 67H175.453V43H180.589V67ZM217.569 42.52C219.169 42.52 220.641 42.856 221.985 43.528C223.329 44.168 224.401 45.16 225.201 46.504C226.001 47.848 226.401 49.496 226.401 51.448V67H221.265V52.264C221.265 50.376 220.817 48.984 219.921 48.088C219.025 47.192 217.825 46.744 216.321 46.744C214.561 46.744 213.073 47.384 211.857 48.664C210.673 49.944 210.081 51.704 210.081 53.944V67H204.945V52.264C204.945 50.376 204.497 48.984 203.601 48.088C202.705 47.192 201.505 46.744 200.001 46.744C198.977 46.744 197.985 47.016 197.025 47.56C196.065 48.072 195.281 48.888 194.673 50.008C194.065 51.128 193.761 52.536 193.761 54.232V67H188.625V43H193.185L193.425 46.984C194.225 45.512 195.313 44.408 196.689 43.672C198.065 42.904 199.569 42.52 201.201 42.52C202.993 42.52 204.609 42.936 206.049 43.768C207.521 44.568 208.609 45.752 209.313 47.32C210.049 45.752 211.169 44.568 212.673 43.768C214.209 42.936 215.841 42.52 217.569 42.52ZM255.643 54.28C255.643 55.208 255.579 56.088 255.451 56.92H237.883C238.171 59.032 238.923 60.648 240.139 61.768C241.355 62.856 242.923 63.4 244.843 63.4C246.411 63.4 247.707 63.128 248.731 62.584C249.787 62.008 250.507 61.192 250.891 60.136L255.163 61.912C253.371 65.624 249.931 67.48 244.843 67.48C241.067 67.48 238.107 66.376 235.963 64.168C233.851 61.96 232.795 58.904 232.795 55C232.795 51.064 233.819 48.008 235.867 45.832C237.915 43.624 240.795 42.52 244.507 42.52C248.027 42.52 250.763 43.592 252.715 45.736C254.667 47.88 255.643 50.728 255.643 54.28ZM244.507 46.6C242.651 46.6 241.147 47.144 239.995 48.232C238.875 49.32 238.171 50.904 237.883 52.984H250.843C250.587 50.968 249.899 49.4 248.779 48.28C247.691 47.16 246.267 46.6 244.507 46.6ZM290.311 54.328H283.495V67H278.407V35.32H291.319C294.743 35.32 297.447 36.168 299.431 37.864C301.415 39.528 302.407 41.848 302.407 44.824C302.407 47.096 301.815 49 300.631 50.536C299.479 52.04 297.831 53.112 295.687 53.752L304.279 67H298.375L290.311 54.328ZM283.495 50.056H290.887C292.967 50.056 294.519 49.64 295.543 48.808C296.567 47.944 297.079 46.632 297.079 44.872C297.079 43.112 296.567 41.816 295.543 40.984C294.519 40.12 292.967 39.688 290.887 39.688H283.495V50.056ZM319.841 42.52C323.585 42.52 326.513 43.624 328.625 45.832C330.737 48.04 331.793 51.096 331.793 55C331.793 58.904 330.737 61.96 328.625 64.168C326.513 66.376 323.585 67.48 319.841 67.48C316.097 67.48 313.169 66.376 311.057 64.168C308.945 61.96 307.889 58.904 307.889 55C307.889 51.096 308.945 48.04 311.057 45.832C313.169 43.624 316.097 42.52 319.841 42.52ZM319.841 46.552C317.665 46.552 315.985 47.288 314.801 48.76C313.649 50.2 313.073 52.28 313.073 55C313.073 57.72 313.649 59.816 314.801 61.288C315.985 62.728 317.665 63.448 319.841 63.448C322.017 63.448 323.697 62.712 324.881 61.24C326.065 59.768 326.657 57.688 326.657 55C326.657 52.312 326.065 50.232 324.881 48.76C323.697 47.288 322.017 46.552 319.841 46.552ZM351.302 42.52C354.598 42.52 357.19 43.64 359.078 45.88C360.966 48.088 361.91 51.144 361.91 55.048C361.91 58.952 360.966 62.008 359.078 64.216C357.19 66.392 354.598 67.48 351.302 67.48C349.414 67.48 347.75 67.032 346.31 66.136C344.902 65.24 343.846 64.04 343.142 62.536L342.902 67H338.39V32.2H343.526V46.84C344.262 45.496 345.302 44.44 346.646 43.672C348.022 42.904 349.574 42.52 351.302 42.52ZM350.15 63.352C352.23 63.352 353.846 62.616 354.998 61.144C356.182 59.672 356.774 57.624 356.774 55C356.774 52.376 356.182 50.344 354.998 48.904C353.846 47.432 352.23 46.696 350.15 46.696C348.198 46.696 346.63 47.352 345.446 48.664C344.294 49.976 343.654 51.784 343.526 54.088V55.912C343.654 58.248 344.294 60.072 345.446 61.384C346.63 62.696 348.198 63.352 350.15 63.352ZM379.138 42.52C382.882 42.52 385.81 43.624 387.922 45.832C390.034 48.04 391.09 51.096 391.09 55C391.09 58.904 390.034 61.96 387.922 64.168C385.81 66.376 382.882 67.48 379.138 67.48C375.394 67.48 372.466 66.376 370.354 64.168C368.242 61.96 367.186 58.904 367.186 55C367.186 51.096 368.242 48.04 370.354 45.832C372.466 43.624 375.394 42.52 379.138 42.52ZM379.138 46.552C376.962 46.552 375.282 47.288 374.098 48.76C372.946 50.2 372.37 52.28 372.37 55C372.37 57.72 372.946 59.816 374.098 61.288C375.282 62.728 376.962 63.448 379.138 63.448C381.314 63.448 382.994 62.712 384.178 61.24C385.362 59.768 385.954 57.688 385.954 55C385.954 52.312 385.362 50.232 384.178 48.76C382.994 47.288 381.314 46.552 379.138 46.552ZM412.911 65.416C412.143 66.056 411.199 66.568 410.079 66.952C408.991 67.304 407.807 67.48 406.527 67.48C404.319 67.48 402.543 66.936 401.199 65.848C399.887 64.728 399.215 63 399.183 60.664V47.032H394.623V43H399.183V37.384L404.319 35.944V43H412.719V47.032H404.319V59.8C404.319 60.952 404.623 61.816 405.231 62.392C405.871 62.936 406.735 63.208 407.823 63.208C409.295 63.208 410.591 62.696 411.711 61.672L412.911 65.416Z" fill="black"/>
<defs>
<clipPath id="clip0">
<rect width="98.5714" height="142.857" fill="white" transform="scale(0.7)"/>
</clipPath>
</defs>
</svg>
