<svg width="519" height="100" viewBox="0 0 519 100" fill="none" xmlns="http://www.w3.org/2000/svg">
<g clip-path="url(#clip0)">
<path d="M22.0238 22.873C24.2138 22.873 25.9892 21.0047 25.9892 18.7C25.9892 16.3953 24.2138 14.527 22.0238 14.527C19.8338 14.527 18.0584 16.3953 18.0584 18.7C18.0584 21.0047 19.8338 22.873 22.0238 22.873Z" fill="#488EFF"/>
<path d="M34.616 71.4286L39.9063 81.0714H29.3257L34.616 71.4286Z" fill="#488EFF"/>
<path d="M46.9762 22.873C49.1662 22.873 50.9416 21.0047 50.9416 18.7C50.9416 16.3953 49.1662 14.527 46.9762 14.527C44.7862 14.527 43.0108 16.3953 43.0108 18.7C43.0108 21.0047 44.7862 22.873 46.9762 22.873Z" fill="#488EFF"/>
<path d="M0 0V39.225H30.309V42.565L0 42.567V100H17.6213L31.033 85.886L23.3256 77.776L31.033 69.665L28.78 67.295L18.8215 77.776L23.1907 82.375L14.3734 91.655H7.93073V50.912H61.0693V91.654H54.6285L45.8103 82.374L50.1804 77.775L40.219 67.294L37.966 69.664L45.6744 77.775L37.966 85.885L51.3787 100H69V42.567L38.691 42.566V39.226H69V0H0ZM61.0693 30.879H7.93073V7.75H61.0693V30.879Z" fill="#488EFF"/>
</g>
<path d="M112.984 54.632V59H87.4V54.824L106.552 31.688H87.832V27.32H112.408V31.496L93.256 54.632H112.984ZM139.784 46.28C139.784 47.208 139.72 48.088 139.592 48.92H122.024C122.312 51.032 123.064 52.648 124.28 53.768C125.496 54.856 127.064 55.4 128.984 55.4C130.552 55.4 131.848 55.128 132.872 54.584C133.928 54.008 134.648 53.192 135.032 52.136L139.304 53.912C137.512 57.624 134.072 59.48 128.984 59.48C125.208 59.48 122.248 58.376 120.104 56.168C117.992 53.96 116.936 50.904 116.936 47C116.936 43.064 117.96 40.008 120.008 37.832C122.056 35.624 124.936 34.52 128.648 34.52C132.168 34.52 134.904 35.592 136.856 37.736C138.808 39.88 139.784 42.728 139.784 46.28ZM128.648 38.6C126.792 38.6 125.288 39.144 124.136 40.232C123.016 41.32 122.312 42.904 122.024 44.984H134.984C134.728 42.968 134.04 41.4 132.92 40.28C131.832 39.16 130.408 38.6 128.648 38.6ZM148.81 30.968C147.722 30.968 146.874 30.696 146.266 30.152C145.658 29.576 145.354 28.776 145.354 27.752C145.354 26.728 145.658 25.944 146.266 25.4C146.874 24.856 147.722 24.584 148.81 24.584C149.898 24.584 150.73 24.856 151.306 25.4C151.914 25.944 152.218 26.728 152.218 27.752C152.218 28.776 151.914 29.576 151.306 30.152C150.73 30.696 149.898 30.968 148.81 30.968ZM151.354 59H146.218V35H151.354V59ZM174.942 57.416C174.174 58.056 173.23 58.568 172.11 58.952C171.022 59.304 169.838 59.48 168.558 59.48C166.35 59.48 164.574 58.936 163.23 57.848C161.918 56.728 161.246 55 161.214 52.664V39.032H156.654V35H161.214V29.384L166.35 27.944V35H174.75V39.032H166.35V51.8C166.35 52.952 166.654 53.816 167.262 54.392C167.902 54.936 168.766 55.208 169.854 55.208C171.326 55.208 172.622 54.696 173.742 53.672L174.942 57.416ZM221.551 46.856C221.551 51.016 220.447 54.168 218.239 56.312C216.031 58.424 212.815 59.48 208.591 59.48C204.367 59.48 201.151 58.424 198.943 56.312C196.735 54.168 195.631 51.016 195.631 46.856V27.32H200.815V46.232C200.815 49.24 201.439 51.464 202.687 52.904C203.967 54.312 205.935 55.016 208.591 55.016C211.247 55.016 213.199 54.312 214.447 52.904C215.727 51.464 216.367 49.24 216.367 46.232V27.32H221.551V46.856ZM242.521 34.52C245.817 34.52 248.409 35.624 250.297 37.832C252.185 40.008 253.129 43.048 253.129 46.952C253.129 50.856 252.185 53.928 250.297 56.168C248.409 58.376 245.817 59.48 242.521 59.48C240.793 59.48 239.241 59.096 237.865 58.328C236.521 57.56 235.481 56.504 234.745 55.16V69.08H229.609V35H234.121L234.361 39.464C235.065 37.96 236.121 36.76 237.529 35.864C238.969 34.968 240.633 34.52 242.521 34.52ZM241.369 55.304C243.449 55.304 245.065 54.584 246.217 53.144C247.401 51.672 247.993 49.624 247.993 47C247.993 44.376 247.401 42.328 246.217 40.856C245.065 39.384 243.449 38.648 241.369 38.648C239.417 38.648 237.849 39.304 236.665 40.616C235.513 41.928 234.873 43.752 234.745 46.088V47.912C234.873 50.216 235.513 52.024 236.665 53.336C237.849 54.648 239.417 55.304 241.369 55.304ZM275.02 57.416C274.252 58.056 273.308 58.568 272.188 58.952C271.1 59.304 269.916 59.48 268.636 59.48C266.428 59.48 264.652 58.936 263.308 57.848C261.996 56.728 261.324 55 261.292 52.664V39.032H256.732V35H261.292V29.384L266.428 27.944V35H274.828V39.032H266.428V51.8C266.428 52.952 266.732 53.816 267.34 54.392C267.98 54.936 268.844 55.208 269.932 55.208C271.404 55.208 272.7 54.696 273.82 53.672L275.02 57.416ZM282.404 30.968C281.316 30.968 280.468 30.696 279.86 30.152C279.252 29.576 278.948 28.776 278.948 27.752C278.948 26.728 279.252 25.944 279.86 25.4C280.468 24.856 281.316 24.584 282.404 24.584C283.492 24.584 284.324 24.856 284.9 25.4C285.508 25.944 285.812 26.728 285.812 27.752C285.812 28.776 285.508 29.576 284.9 30.152C284.324 30.696 283.492 30.968 282.404 30.968ZM284.948 59H279.812V35H284.948V59ZM321.928 34.52C323.528 34.52 325 34.856 326.344 35.528C327.688 36.168 328.76 37.16 329.56 38.504C330.36 39.848 330.76 41.496 330.76 43.448V59H325.624V44.264C325.624 42.376 325.176 40.984 324.28 40.088C323.384 39.192 322.184 38.744 320.68 38.744C318.92 38.744 317.432 39.384 316.216 40.664C315.032 41.944 314.44 43.704 314.44 45.944V59H309.304V44.264C309.304 42.376 308.856 40.984 307.96 40.088C307.064 39.192 305.864 38.744 304.36 38.744C303.336 38.744 302.344 39.016 301.384 39.56C300.424 40.072 299.64 40.888 299.032 42.008C298.424 43.128 298.12 44.536 298.12 46.232V59H292.984V35H297.544L297.784 38.984C298.584 37.512 299.672 36.408 301.048 35.672C302.424 34.904 303.928 34.52 305.56 34.52C307.352 34.52 308.968 34.936 310.408 35.768C311.88 36.568 312.968 37.752 313.672 39.32C314.408 37.752 315.528 36.568 317.032 35.768C318.568 34.936 320.2 34.52 321.928 34.52ZM360.003 46.28C360.003 47.208 359.939 48.088 359.811 48.92H342.243C342.531 51.032 343.283 52.648 344.499 53.768C345.715 54.856 347.283 55.4 349.203 55.4C350.771 55.4 352.067 55.128 353.091 54.584C354.147 54.008 354.867 53.192 355.251 52.136L359.523 53.912C357.731 57.624 354.291 59.48 349.203 59.48C345.427 59.48 342.467 58.376 340.323 56.168C338.211 53.96 337.155 50.904 337.155 47C337.155 43.064 338.179 40.008 340.227 37.832C342.275 35.624 345.155 34.52 348.867 34.52C352.387 34.52 355.123 35.592 357.075 37.736C359.027 39.88 360.003 42.728 360.003 46.28ZM348.867 38.6C347.011 38.6 345.507 39.144 344.355 40.232C343.235 41.32 342.531 42.904 342.243 44.984H355.203C354.947 42.968 354.259 41.4 353.139 40.28C352.051 39.16 350.627 38.6 348.867 38.6ZM394.671 46.328H387.855V59H382.767V27.32H395.679C399.103 27.32 401.807 28.168 403.791 29.864C405.775 31.528 406.767 33.848 406.767 36.824C406.767 39.096 406.175 41 404.991 42.536C403.839 44.04 402.191 45.112 400.047 45.752L408.639 59H402.734L394.671 46.328ZM387.855 42.056H395.247C397.327 42.056 398.879 41.64 399.903 40.808C400.927 39.944 401.439 38.632 401.439 36.872C401.439 35.112 400.927 33.816 399.903 32.984C398.879 32.12 397.327 31.688 395.247 31.688H387.855V42.056ZM424.2 34.52C427.944 34.52 430.872 35.624 432.984 37.832C435.096 40.04 436.152 43.096 436.152 47C436.152 50.904 435.096 53.96 432.984 56.168C430.872 58.376 427.944 59.48 424.2 59.48C420.456 59.48 417.528 58.376 415.416 56.168C413.304 53.96 412.248 50.904 412.248 47C412.248 43.096 413.304 40.04 415.416 37.832C417.528 35.624 420.456 34.52 424.2 34.52ZM424.2 38.552C422.024 38.552 420.344 39.288 419.16 40.76C418.008 42.2 417.432 44.28 417.432 47C417.432 49.72 418.008 51.816 419.16 53.288C420.344 54.728 422.024 55.448 424.2 55.448C426.376 55.448 428.056 54.712 429.24 53.24C430.424 51.768 431.016 49.688 431.016 47C431.016 44.312 430.424 42.232 429.24 40.76C428.056 39.288 426.376 38.552 424.2 38.552ZM455.662 34.52C458.958 34.52 461.55 35.64 463.438 37.88C465.326 40.088 466.27 43.144 466.27 47.048C466.27 50.952 465.326 54.008 463.438 56.216C461.55 58.392 458.958 59.48 455.662 59.48C453.774 59.48 452.11 59.032 450.67 58.136C449.262 57.24 448.206 56.04 447.502 54.536L447.262 59H442.75V24.2H447.886V38.84C448.622 37.496 449.662 36.44 451.006 35.672C452.382 34.904 453.934 34.52 455.662 34.52ZM454.51 55.352C456.59 55.352 458.206 54.616 459.358 53.144C460.542 51.672 461.134 49.624 461.134 47C461.134 44.376 460.542 42.344 459.358 40.904C458.206 39.432 456.59 38.696 454.51 38.696C452.558 38.696 450.99 39.352 449.806 40.664C448.654 41.976 448.014 43.784 447.886 46.088V47.912C448.014 50.248 448.654 52.072 449.806 53.384C450.99 54.696 452.558 55.352 454.51 55.352ZM483.497 34.52C487.241 34.52 490.169 35.624 492.281 37.832C494.393 40.04 495.449 43.096 495.449 47C495.449 50.904 494.393 53.96 492.281 56.168C490.169 58.376 487.241 59.48 483.497 59.48C479.753 59.48 476.825 58.376 474.713 56.168C472.601 53.96 471.545 50.904 471.545 47C471.545 43.096 472.601 40.04 474.713 37.832C476.825 35.624 479.753 34.52 483.497 34.52ZM483.497 38.552C481.321 38.552 479.641 39.288 478.457 40.76C477.305 42.2 476.729 44.28 476.729 47C476.729 49.72 477.305 51.816 478.457 53.288C479.641 54.728 481.321 55.448 483.497 55.448C485.673 55.448 487.353 54.712 488.537 53.24C489.721 51.768 490.313 49.688 490.313 47C490.313 44.312 489.721 42.232 488.537 40.76C487.353 39.288 485.673 38.552 483.497 38.552ZM517.27 57.416C516.502 58.056 515.558 58.568 514.438 58.952C513.35 59.304 512.166 59.48 510.886 59.48C508.678 59.48 506.902 58.936 505.558 57.848C504.246 56.728 503.574 55 503.542 52.664V39.032H498.982V35H503.542V29.384L508.678 27.944V35H517.078V39.032H508.678V51.8C508.678 52.952 508.982 53.816 509.59 54.392C510.23 54.936 511.094 55.208 512.182 55.208C513.654 55.208 514.95 54.696 516.07 53.672L517.27 57.416Z" fill="black"/>
<defs>
<clipPath id="clip0">
<rect width="98.5714" height="142.857" fill="white" transform="scale(0.7)"/>
</clipPath>
</defs>
</svg>
