<svg width="51" height="70" viewBox="0 0 51 70" fill="none" xmlns="http://www.w3.org/2000/svg">
<g clip-path="url(#clip0)">
<path d="M16.2239 16.0111C17.8372 16.0111 19.145 14.7033 19.145 13.09C19.145 11.4767 17.8372 10.1689 16.2239 10.1689C14.6106 10.1689 13.3028 11.4767 13.3028 13.09C13.3028 14.7033 14.6106 16.0111 16.2239 16.0111Z" fill="#488EFF"/>
<path d="M25.5 50L29.3971 56.75H21.6029L25.5 50Z" fill="#488EFF"/>
<path d="M34.6052 16.0111C36.2185 16.0111 37.5263 14.7033 37.5263 13.09C37.5263 11.4767 36.2185 10.1689 34.6052 10.1689C32.9919 10.1689 31.6841 11.4767 31.6841 13.09C31.6841 14.7033 32.9919 16.0111 34.6052 16.0111Z" fill="#488EFF"/>
<path d="M0 0V27.4575H22.3272V29.7955L0 29.7969V70H12.9808L22.8606 60.1202L17.1829 54.4432L22.8606 48.7655L21.2009 47.1065L13.8649 54.4432L17.0835 57.6625L10.5882 64.1585H5.8422V35.6384H44.9869V64.1578H40.2423L33.7463 57.6618L36.9656 54.4425L29.6275 47.1058L27.9678 48.7648L33.6462 54.4425L27.9678 60.1195L37.8483 70H50.8291V29.7969L28.5019 29.7962V27.4582H50.8291V0H0ZM44.9869 21.6153H5.8422V5.425H44.9869V21.6153Z" fill="#488EFF"/>
</g>
<defs>
<clipPath id="clip0">
<rect width="72.613" height="100" fill="white" transform="scale(0.7)"/>
</clipPath>
</defs>
</svg>
